Coordinates
version=1
nRows=19
nColumns=33
inDegrees=yes

Units are S.I. units (second, meters, Newtons, ...)
Angles are in degrees.

endheader
time	ground_thorax_rot_x	ground_thorax_rot_y	ground_thorax_rot_z	ground_thorax_tx	ground_thorax_ty	ground_thorax_tz	clav_prot_r	clav_elev_r	scapula_abduction_r	scapula_elevation_r	scapula_upward_rot_r	scapula_winging_r	shoulder_elv_r	plane_of_elev_r	axial_rot_r	elbow_flexion_r	pro_sup_r	wrist_flex_r	wrist_dev_r	clav_prot_l	clav_elev_l	scapula_abduction_l	scapula_elevation_l	scapula_upward_rot_l	scapula_winging_l	shoulder_elv_l	plane_of_elev_l	axial_rot_l	elbow_flexion_l	pro_sup_l	wrist_flex_l	wrist_dev_l
      8.61000000	    -38.57067762	     -3.41005267	     -1.36119244	     -8.96922623	    811.09374740	      2.39847090	      4.06919720	    -45.00000000	     45.00000000	    -45.00000000	     -5.05742812	  -2967.97977596	  -3176.98472728	     29.15628777	     74.11912103	    729.68529874	      8.50096833	     17.21391552	     12.14016441	     15.12446647	     41.67905814	    -45.00000000	    -40.31989958	    -22.30298508	   1517.76280175	  -2621.45688139	    135.58302535	   -179.99999979	    726.32728353	     14.93024919	     14.11590993	    -18.18975950
      8.62000000	    -38.37763922	     -4.01186053	     -0.76709096	     -7.94692011	    809.79405978	      2.74260910	      4.06956559	    -45.00000000	     45.00000000	    -45.00000000	     -5.80901095	  -2967.90203641	  -3176.85881418	     29.02032711	     74.52717007	    729.62252865	      8.60724061	     17.05849664	     12.14378047	     14.82608596	     40.52148254	    -45.00000000	    -39.80457598	    -23.01155377	   1517.81288616	  -2621.37164092	    135.50897108	   -179.99999979	    726.13679912	     15.31088111	     14.02316735	    -18.05560759
      8.63000000	    -38.30142703	     -4.20768600	     -0.72119131	     -7.28543828	    808.66062769	      2.99209241	      4.25337073	    -45.00000000	     45.00000000	    -45.00000000	     -5.88190335	  -2967.93544430	  -3176.97536069	     28.97303840	     74.73674148	    729.62614233	      8.61339211	     17.09244746	     12.17097137	     14.95890121	     40.82300731	    -45.00000000	    -39.47162668	    -22.62758675	   1517.94098489	  -2621.55858655	    135.64256193	   -179.82605495	    725.99317767	     15.49480946	     13.80097656	    -18.12905998
      8.64000000	    -38.27615050	     -4.13050755	     -0.93039516	     -6.99561834	    807.67416981	      3.14418665	      4.09617214	    -45.00000000	     45.00000000	    -45.00000000	     -5.83702113	  -2967.80411002	  -3177.07943874	     28.85406087	     74.87042114	    729.38415530	      8.61683171	     16.92225028	     12.10045529	     14.77968809	     40.59283817	    -45.00000000	    -39.35915270	    -22.58105792	   1517.88080183	  -2621.50628883	    135.58257752	   -179.99999979	    725.79509319	     15.73286661	     13.87512566	    -18.04417223
      8.65000000	    -38.33926026	     -4.14850152	     -1.02054914	     -7.08034943	    806.80993613	      3.20412795	      4.15861633	    -45.00000000	     45.00000000	    -45.00000000	     -6.01653502	  -2967.79596581	  -3177.22117985	     28.82227283	     75.10043402	    729.29716321	      8.63624443	     16.93457747	     12.17564765	     14.74089000	     40.76880932	    -45.00000000	    -39.31810286	    -22.22151914	   1517.95788964	  -2621.71391217	    135.64250390	   -179.99999979	    725.52754874	     15.81753494	     13.72502199	    -18.08252127
      8.66000000	    -38.27823954	     -4.28120028	     -0.98389260	     -7.53110860	    806.05313320	      3.18227394	      4.10364558	    -45.00000000	     45.00000000	    -45.00000000	     -6.08953191	  -2967.90008061	  -3177.16649962	     28.73405439	     75.20339947	    729.33247988	      8.67448125	     16.89807887	     12.17765767	     14.69445608	     40.55215293	    -45.00000000	    -39.06291762	    -22.13581362	   1518.21342171	  -2621.80734487	    135.66560178	   -179.99999979	    725.38858236	     15.83131171	     13.63591213	    -18.07789804
      8.67000000	    -38.30860850	     -4.32974410	     -1.03411380	     -8.33149050	    805.37734670	      3.09379826	      4.17691577	    -45.00000000	     45.00000000	    -45.00000000	     -6.23941172	  -2968.06481541	  -3177.26431788	     28.75773571	     75.37339921	    729.24893735	      8.78039414	     16.92004158	     12.13413380	     14.60637652	     40.78214522	    -45.00000000	    -39.01077914	    -22.00087231	   1518.37196597	  -2621.90646036	    135.71665630	   -179.99999979	    725.23372843	     15.77425756	     13.53483097	    -18.12641396
      8.68000000	    -38.33216822	     -4.37810086	     -1.05720986	     -9.46392826	    804.76411215	      2.95400731	      4.15337819	    -45.00000000	     45.00000000	    -45.00000000	     -6.40204840	  -2968.11444173	  -3177.19121797	     28.65685737	     75.55471313	    729.22869972	      8.96384030	     16.88416126	     12.13487812	     14.64122084	     40.66816234	    -45.00000000	    -38.99006563	    -21.99641739	   1518.54995229	  -2621.99198113	    135.71618569	   -179.99999979	    725.07001335	     15.66925712	     13.48537764	    -18.09972971
      8.69000000	    -38.33703646	     -4.42614783	     -1.04046638	    -10.91019931	    804.19759422	      2.77664245	      4.24000845	    -45.00000000	     45.00000000	    -45.00000000	     -6.64688642	  -2968.40560164	  -3177.24410405	     28.73574529	     75.78628047	    729.09578530	      9.22234703	     16.92581036	     12.06876775	     14.57971360	     40.88327654	    -45.00000000	    -38.92497611	    -22.03474484	   1518.74293220	  -2622.08117074	    135.73721855	   -179.99999979	    724.84047798	     15.49218069	     13.34937906	    -18.13208035
      8.70000000	    -38.42985393	     -4.53365795	     -1.04178668	    -12.65363175	    803.66415849	      2.57191814	      4.25603418	    -45.00000000	     45.00000000	    -45.00000000	     -6.88093436	  -2968.45385099	  -3177.18570329	     28.55819147	     76.07284549	    729.21351241	      9.55999644	     16.92140537	     12.00686757	     14.66130018	     40.81329160	    -45.00000000	    -38.95649189	    -22.17127272	   1518.97002263	  -2622.07778438	    135.79688136	   -179.99999979	    724.77257513	     15.28668726	     13.32014468	    -18.09402809
      8.71000000	    -38.45607432	     -4.52428830	     -1.00608671	    -14.68328024	    803.15203934	      2.34511033	      4.38447552	    -45.00000000	     45.00000000	    -45.00000000	     -7.18210865	  -2968.97669811	  -3177.25783810	     28.74432101	     76.41052013	    729.16838358	      9.96965546	     17.04129220	     11.91039059	     14.63621173	     41.00820220	    -45.00000000	    -38.99730212	    -22.36616726	   1519.18499480	  -2622.14740289	    135.73037151	   -179.99999979	    724.61899249	     15.03218887	     13.10502301	    -18.16379788
      8.72000000	    -38.57947654	     -4.69122746	     -0.95011514	    -16.99249262	    802.65208396	      2.09770914	      4.36752711	    -45.00000000	     45.00000000	    -45.00000000	     -7.52422984	  -2968.81595814	  -3177.03967963	     28.32860317	     76.88699920	    729.36339193	     10.48272971	     17.00125258	     11.82238920	     14.75557032	     40.88667923	    -45.00000000	    -39.15715792	    -22.77333382	   1519.32874003	  -2622.16350752	    135.89621958	   -179.96206007	    724.68485441	     14.81297265	     13.19012607	    -18.08858909
      8.73000000	    -38.81245413	     -4.72681313	     -0.94724211	    -19.57672334	    802.15796256	      1.82901470	      4.61471087	    -45.00000000	     45.00000000	    -45.00000000	     -8.11277686	  -2969.07250450	  -3177.20567784	     28.39462208	     77.28668786	    729.38084035	     11.16049709	     17.15497386	     11.74723397	     14.84731708	     41.09596835	    -45.00000000	    -39.44857663	    -23.04920737	   1519.32976902	  -2622.12139964	    136.05200941	   -179.99906186	    724.47198348	     14.58217510	     13.07773998	    -18.13840377
      8.74000000	    -38.89077594	     -4.62259307	     -1.17412121	    -22.43206056	    801.66516621	      1.53750901	      4.67380900	    -45.00000000	     45.00000000	    -45.00000000	     -8.25474940	  -2969.20090859	  -3177.08808368	     28.28906247	     77.49187159	    729.53376031	     11.92419319	     17.21846732	     11.58462570	     14.78367163	     41.18020284	    -45.00000000	    -39.57162289	    -22.97984127	   1519.56459504	  -2622.27142669	    136.23440876	   -179.99999979	    724.58205216	     14.50281484	     13.10266175	    -18.19138347
      8.75000000	    -38.93952675	     -5.01972305	     -0.54785475	    -25.56180673	    801.16996566	      1.22089673	      4.99855360	    -45.00000000	     45.00000000	    -45.00000000	     -9.03890803	  -2969.64543866	  -3177.01083057	     28.02926566	     77.75938331	    729.62941790	     13.04013291	     17.27344600	     11.34704734	     15.11693623	     41.41450898	    -45.00000000	    -39.83876256	    -24.98326263	   1519.32186872	  -2621.81311941	    136.06061067	   -179.99999979	    724.55172860	     14.51681664	     12.84603749	    -18.16823188
      8.76000000	    -38.90009802	     -4.92618302	     -0.71733086	    -28.95170177	    800.67312263	      0.87994264	      5.10874504	    -45.00000000	     45.00000000	    -45.00000000	     -9.25366125	  -2970.09237084	  -3176.95313425	     28.16457127	     78.08871455	    729.77215167	     14.06080503	     17.34629534	     11.11986626	     15.12567844	     41.43812623	    -45.00000000	    -39.77281802	    -24.84163742	   1519.73104642	  -2622.03075133	    136.10392207	   -179.99999979	    724.49420800	     14.53738542	     12.68351286	    -18.19345467
      8.77000000	    -39.09222120	     -5.54012832	     -0.13471818	    -32.60993148	    800.17222326	      0.51421181	      5.48520291	    -45.00000000	     45.00000000	    -45.00000000	    -10.60763355	  -2970.49465122	  -3177.09712330	     28.22471358	     78.66475547	    729.79149473	     15.45825506	     17.39824269	     11.04621213	     15.81938027	     41.27833041	    -45.00000000	    -40.13078872	    -27.03497130	   1519.69949875	  -2621.60422302	    135.88284686	   -179.98238203	    724.34148911	     14.71337127	     12.19180312	    -18.11016623
      8.78000000	    -39.16367604	     -5.70456776	      0.08192352	    -36.52167601	    799.66954554	      0.12706770	      5.69239603	    -45.00000000	     45.00000000	    -45.00000000	    -11.33981633	  -2970.96508646	  -3177.11069846	     28.19716975	     79.03919198	    729.86395303	     16.77998464	     17.44792681	     10.85969936	     16.08147516	     41.21893365	    -45.00000000	    -40.27200608	    -27.97601460	   1519.86132462	  -2621.50343522	    135.80164005	   -179.94922661	    724.37847270	     14.95213473	     11.95699071	    -18.12339513
      8.79000000	    -39.20625823	     -6.08990890	      0.46996738	    -40.68053407	    799.16630558	     -0.27894262	      6.00288104	    -45.00000000	     45.00000000	    -45.00000000	    -12.39237317	  -2971.33495253	  -3177.03257099	     28.18481440	     79.66090268	    730.00049686	     18.16697189	     17.52459506	     10.64479915	     16.48871332	     41.05935942	    -45.00000000	    -40.48312889	    -29.23337291	   1519.89136127	  -2621.48196264	    135.87996295	   -179.94298772	    724.40958354	     15.39793528	     11.90441684	    -18.19224220
